{"title":"Priest 2011 R5 XviD-playXD","uid":6442692,"size":1304410402,"categoryP":"video","categoryS":"movies","magnet":"?xt=urn:btih:efe2784c7a88616147d833bcb4dd4708994e7bb6&amp;dn=Priest+2011+R5+XviD-playXD&amp;tr=udp%3A%2F%2Ftracker.openbittorrent.com%3A80&amp;tr=udp%3A%2F%2Fopen.demonii.com%3A1337&amp;tr=udp%3A%2F%2Ftracker.coppersurfer.tk%3A6969&amp;tr=udp%3A%2F%2Fexodus.desync.com%3A6969","seeders":0,"leechers":1,"uploader":"Adytza","files":3,"time":1307022785,"description":" &lt;a href=&quot;\nhttp://www.imdb.com/title/tt0822847/&quot; rel=&quot;nofollow&quot; target=&quot;_NEW&quot;&gt;\nhttp://www.imdb.com/title/tt0822847/&lt;/a&gt;\n\nMedia Info wrote:\nGeneral\nComplete name                    : Priest.2011.R5.XviD-playXD.avi\nFormat                           : AVI\nFormat/Info                      : Audio Video Interleave\nFile size                        : 1.17 GiB\nDuration                         : 1h 23mn\nOverall bit rate                 : 2 007 Kbps\nWriting application              : VirtualDubMod 1.5.10.2 (build 2540/release)\nWriting library                  : VirtualDubMod build 2540/release\n\nVideo\nID                               : 0\nFormat                           : MPEG-4 Visual\nFormat profile                   : Advanced Simple@L5\nFormat settings, BVOP            : Yes\nFormat settings, QPel            : No\nFormat settings, GMC             : No warppoints\nFormat settings, Matrix          : Custom\nCodec ID                         : XVID\nCodec ID/Hint                    : XviD\nDuration                         : 1h 23mn\nBit rate                         : 1 880 Kbps\nWidth                            : 720 pixels\nHeight                           : 304 pixels\nDisplay aspect ratio             : 2.35:1\nFrame rate                       : 25.000 fps\nColor space                      : YUV\nChroma subsampling               : 4:2:0\nBit depth                        : 8 bits\nScan type                        : Progressive\nCompression mode                 : Lossy\nBits/(Pixel*Frame)               : 0.344\nStream size                      : 1.10 GiB (94%)\nWriting library                  : XviD 58\n\nAudio\nID                               : 1\nFormat                           : MPEG Audio\nCodec ID                         : 55\nCodec ID/Hint                    : MP3\nDuration                         : 1h 16mn\nBit rate                         : 128 Kbps\nChannel(s)                       : 2 channels\nSampling rate                    : 48.0 KHz\nCompression mode                 : Lossy\nStream size                      : 70.4 MiB (6%)\nAlignment                        : Split accross interleaves\nInterleave, duration             : 44 ms (1.09 video frame)\nInterleave, preload duration     : 504 ms\n\n\n\n\n\n\n\n\n\n\n\nSAMPLE\n\n\n\nScreens\n\n[img]http://pic.phyrefile.com/o/os/osalivan/2011/06/02/xcmf98pt.jpg[/img]\n[img]http://pic.phyrefile.com/o/os/osalivan/2011/06/02/2e4vmm3i.jpg[/img]\n[img]http://pic.phyrefile.com/o/os/osalivan/2011/06/02/76f5huqu.jpg[/img]","torrent":{"xt":"urn:btih:efe2784c7a88616147d833bcb4dd4708994e7bb6","amp;dn":"Priest+2011+R5+XviD-playXD","amp;tr":["udp%3A%2F%2Ftracker.openbittorrent.com%3A80","udp%3A%2F%2Fopen.demonii.com%3A1337","udp%3A%2F%2Ftracker.coppersurfer.tk%3A6969","udp%3A%2F%2Fexodus.desync.com%3A6969"],"infoHash":"efe2784c7a88616147d833bcb4dd4708994e7bb6","infoHashBuffer":{"type":"Buffer","data":[239,226,120,76,122,136,97,97,71,216,51,188,180,221,71,8,153,78,123,182]},"announce":[],"urlList":[]}}